<svg width="38" height="42" viewBox="0 0 38 42" fill="none" xmlns="http://www.w3.org/2000/svg">
<path d="M18.5 6.15625V11.125H13.5313C12.5485 11.125 11.5879 10.8336 10.7708 10.2876C9.95366 9.74164 9.3168 8.96563 8.94073 8.05771C8.56465 7.14979 8.46626 6.15074 8.65798 5.18689C8.8497 4.22305 9.32292 3.33771 10.0178 2.64282C10.7127 1.94792 11.5981 1.4747 12.5619 1.28298C13.5257 1.09126 14.5248 1.18965 15.4327 1.56573C16.3406 1.9418 17.1166 2.57866 17.6626 3.39576C18.2086 4.21287 18.5 5.17352 18.5 6.15625ZM24.4688 11.125H19.5V6.15625C19.5 5.17352 19.7914 4.21287 20.3374 3.39576C20.8834 2.57866 21.6594 1.9418 22.5673 1.56573C23.4752 1.18965 24.4743 1.09126 25.4381 1.28298C26.402 1.4747 27.2873 1.94792 27.9822 2.64282C28.6771 3.33771 29.1503 4.22305 29.342 5.18689C29.5338 6.15074 29.4354 7.14979 29.0593 8.05771C28.6832 8.96563 28.0464 9.74164 27.2292 10.2876C26.4121 10.8336 25.4515 11.125 24.4688 11.125Z" stroke="black"/>
<path d="M3.375 12.125H34.625C36.0747 12.125 37.25 13.3003 37.25 14.75V19.4375C37.25 20.8872 36.0747 22.0625 34.625 22.0625H3.375C1.92525 22.0625 0.75 20.8872 0.75 19.4375V14.75C0.75 13.3003 1.92525 12.125 3.375 12.125Z" stroke="black"/>
<mask id="path-3-inside-1" fill="white">
<path d="M34.625 22.5625V36.625C34.625 37.8682 34.1311 39.0605 33.2521 39.9396C32.373 40.8186 31.1807 41.3125 29.9375 41.3125H8.0625C6.8193 41.3125 5.62701 40.8186 4.74794 39.9396C3.86886 39.0605 3.375 37.8682 3.375 36.625V22.5625H34.625ZM19 11.625V41.3125Z"/>
</mask>
<path d="M34.625 22.5625H35.625V21.5625H34.625V22.5625ZM34.625 36.625H35.625H34.625ZM29.9375 41.3125L29.9375 42.3125L29.9375 41.3125ZM8.0625 41.3125V42.3125V41.3125ZM3.375 22.5625V21.5625H2.375V22.5625H3.375ZM33.625 22.5625V36.625H35.625V22.5625H33.625ZM33.625 36.625C33.625 37.603 33.2365 38.5409 32.545 39.2325L33.9592 40.6467C35.0258 39.5801 35.625 38.1334 35.625 36.625L33.625 36.625ZM32.545 39.2325C31.8534 39.924 30.9155 40.3125 29.9375 40.3125L29.9375 42.3125C31.4459 42.3125 32.8926 41.7133 33.9592 40.6467L32.545 39.2325ZM29.9375 40.3125H8.0625V42.3125H29.9375V40.3125ZM8.0625 40.3125C7.08451 40.3125 6.14658 39.924 5.45504 39.2325L4.04083 40.6467C5.10744 41.7133 6.55408 42.3125 8.0625 42.3125L8.0625 40.3125ZM5.45504 39.2325C4.7635 38.5409 4.375 37.603 4.375 36.625H2.375C2.375 38.1334 2.97422 39.5801 4.04083 40.6467L5.45504 39.2325ZM4.375 36.625V22.5625H2.375V36.625H4.375ZM3.375 23.5625H34.625V21.5625H3.375V23.5625ZM18 11.625V41.3125H20V11.625H18Z" fill="black" mask="url(#path-3-inside-1)"/>
</svg>
