<svg width="30" height="19" viewBox="0 0 30 19" fill="none" xmlns="http://www.w3.org/2000/svg">
<path d="M19.0561 1.98216H10.9438V16.5601H19.0561V1.98216Z" fill="#FF5F00"/>
<path d="M30 9.27114C30.0001 11.0107 29.5107 12.7152 28.5878 14.1898C27.6649 15.6644 26.3457 16.8496 24.7811 17.6099C23.2165 18.3702 21.4695 18.675 19.7398 18.4893C18.0102 18.3037 16.3676 17.6351 15 16.5601C16.1035 15.6924 16.9955 14.5856 17.6089 13.3229C18.2223 12.0603 18.541 10.6749 18.541 9.27114C18.541 7.8674 18.2223 6.48199 17.6089 5.21936C16.9955 3.95673 16.1035 2.84985 15 1.98217C16.3676 0.907139 18.0102 0.238593 19.7398 0.0529476C21.4695 -0.132698 23.2165 0.17205 24.7811 0.932358C26.3457 1.69267 27.6649 2.87785 28.5878 4.35245C29.5107 5.82705 30.0001 7.53156 30 9.27114Z" fill="#F79E1B"/>
<path d="M11.4594 9.27114C11.4581 7.86718 11.7763 6.48133 12.3898 5.2185C13.0033 3.95567 13.896 2.84897 15.0004 1.98217C13.6328 0.907143 11.9902 0.238598 10.2605 0.0529501C8.53086 -0.132698 6.78384 0.172037 5.21917 0.932337C3.6545 1.69264 2.33531 2.87782 1.41237 4.35242C0.489433 5.82702 0 7.53153 0 9.27114C0 11.0108 0.489433 12.7153 1.41237 14.1899C2.33531 15.6645 3.6545 16.8497 5.21917 17.61C6.78384 18.3703 8.53086 18.675 10.2605 18.4893C11.9902 18.3037 13.6328 17.6351 15.0004 16.5601C13.896 15.6933 13.0033 14.5866 12.3898 13.3238C11.7763 12.061 11.4581 10.6751 11.4594 9.27114Z" fill="#EB001B"/>
<path d="M29.1155 15.0161V14.7176H29.2358V14.6568H28.9293V14.7176H29.0497V15.0161H29.1155ZM29.7105 15.0161V14.6562H29.6165L29.5085 14.9037L29.4004 14.6562H29.3064V15.0161H29.3727V14.7446L29.4741 14.9787H29.5429L29.6442 14.7441V15.0161H29.7105Z" fill="#F79E1B"/>
</svg>
