<svg width="30" height="10" viewBox="0 0 30 10" fill="none" xmlns="http://www.w3.org/2000/svg">
<path d="M28.027 0.163696H26.1429C25.5578 0.163696 25.1225 0.322997 24.8654 0.906264L21.2448 9.10587H23.8055C23.8055 9.10587 24.2232 8.00331 24.3179 7.76185C24.5982 7.76185 27.0862 7.76561 27.4405 7.76561C27.5133 8.07794 27.7378 9.10587 27.7378 9.10587H30L28.027 0.163696ZM25.0197 5.93051C25.2204 5.41686 25.9912 3.42999 25.9912 3.42999C25.978 3.45445 26.19 2.91258 26.316 2.57579L26.4804 3.34721C26.4804 3.34721 26.9476 5.48334 27.0454 5.93051H25.0197Z" fill="white"/>
<path d="M12.0122 0.153656L10.4875 9.10084H12.926L14.4519 0.153656H12.0122Z" fill="white"/>
<path d="M8.44294 0.163686L6.05468 6.26541L5.80005 5.3441C5.32905 4.23401 3.99192 2.63975 2.42212 1.63502L4.60592 9.09645L7.18609 9.09206L11.0262 0.161804L8.44294 0.163686Z" fill="white"/>
<path d="M4.87436 0.804023C4.73262 0.259013 4.32182 0.0965754 3.81193 0.0771332H0.0313584L0 0.25525C2.94205 0.968968 4.88878 2.68867 5.69658 4.75644L4.87436 0.804023Z" fill="white"/>
<path d="M19.394 1.86896C20.1918 1.85642 20.77 2.03077 21.2191 2.2114L21.4392 2.31488L21.7691 0.375674C21.2862 0.194422 20.5292 0 19.5847 0C17.1751 0 15.4767 1.21357 15.4635 2.95271C15.4478 4.23778 16.6733 4.95526 17.599 5.38362C18.5492 5.82264 18.8678 6.10173 18.8634 6.49371C18.8559 7.09265 18.1058 7.36735 17.4052 7.36735C16.4287 7.36735 15.9101 7.23251 15.1092 6.89886L14.795 6.75586L14.4519 8.75841C15.0226 9.00865 16.0756 9.22377 17.1688 9.23506C19.732 9.23506 21.3978 8.03591 21.4154 6.17761C21.426 5.16097 20.7756 4.38516 19.3664 3.74859C18.5134 3.3334 17.9916 3.05745 17.9967 2.6385C17.9967 2.26659 18.4394 1.86896 19.394 1.86896Z" fill="white"/>
</svg>
